<mxfile host="app.diagrams.net" modified="2023-06-13T09:37:16.734Z" agent="Mozilla/5.0 (Macintosh; Intel Mac OS X 10_15_7) AppleWebKit/537.36 (KHTML, like Gecko) Chrome/114.0.0.0 Safari/537.36" etag="qmCoonMXFrkqbKxNeXSd" version="21.3.8" type="device">
  <diagram name="Page-1" id="QZI2f7-9B8MQl0Xl8nUM">
    <mxGraphModel dx="954" dy="648" grid="1" gridSize="10" guides="1" tooltips="1" connect="1" arrows="1" fold="1" page="1" pageScale="1" pageWidth="850" pageHeight="1100" math="0" shadow="0">
      <root>
        <mxCell id="0" />
        <mxCell id="1" parent="0" />
        <mxCell id="sEIuAhmAC_BU55Vordls-6" style="edgeStyle=orthogonalEdgeStyle;rounded=0;orthogonalLoop=1;jettySize=auto;html=1;entryX=0;entryY=0.5;entryDx=0;entryDy=0;" edge="1" parent="1" source="sEIuAhmAC_BU55Vordls-1" target="sEIuAhmAC_BU55Vordls-2">
          <mxGeometry relative="1" as="geometry" />
        </mxCell>
        <mxCell id="sEIuAhmAC_BU55Vordls-1" value="People" style="rounded=1;whiteSpace=wrap;html=1;" vertex="1" parent="1">
          <mxGeometry x="160" y="220" width="120" height="60" as="geometry" />
        </mxCell>
        <mxCell id="sEIuAhmAC_BU55Vordls-7" style="edgeStyle=orthogonalEdgeStyle;rounded=0;orthogonalLoop=1;jettySize=auto;html=1;entryX=0;entryY=0.5;entryDx=0;entryDy=0;" edge="1" parent="1" source="sEIuAhmAC_BU55Vordls-2" target="sEIuAhmAC_BU55Vordls-3">
          <mxGeometry relative="1" as="geometry" />
        </mxCell>
        <mxCell id="sEIuAhmAC_BU55Vordls-2" value="Tax" style="rounded=1;whiteSpace=wrap;html=1;" vertex="1" parent="1">
          <mxGeometry x="350" y="220" width="120" height="60" as="geometry" />
        </mxCell>
        <mxCell id="sEIuAhmAC_BU55Vordls-8" value="" style="edgeStyle=orthogonalEdgeStyle;rounded=0;orthogonalLoop=1;jettySize=auto;html=1;" edge="1" parent="1" source="sEIuAhmAC_BU55Vordls-3" target="sEIuAhmAC_BU55Vordls-4">
          <mxGeometry relative="1" as="geometry" />
        </mxCell>
        <mxCell id="sEIuAhmAC_BU55Vordls-3" value="Governments" style="rounded=1;whiteSpace=wrap;html=1;" vertex="1" parent="1">
          <mxGeometry x="540" y="220" width="120" height="60" as="geometry" />
        </mxCell>
        <mxCell id="sEIuAhmAC_BU55Vordls-9" style="edgeStyle=orthogonalEdgeStyle;rounded=0;orthogonalLoop=1;jettySize=auto;html=1;entryX=0.5;entryY=1;entryDx=0;entryDy=0;" edge="1" parent="1" source="sEIuAhmAC_BU55Vordls-4" target="sEIuAhmAC_BU55Vordls-1">
          <mxGeometry relative="1" as="geometry" />
        </mxCell>
        <mxCell id="sEIuAhmAC_BU55Vordls-12" style="edgeStyle=orthogonalEdgeStyle;rounded=0;orthogonalLoop=1;jettySize=auto;html=1;entryX=0.5;entryY=0;entryDx=0;entryDy=0;" edge="1" parent="1" source="sEIuAhmAC_BU55Vordls-4" target="sEIuAhmAC_BU55Vordls-11">
          <mxGeometry relative="1" as="geometry" />
        </mxCell>
        <mxCell id="sEIuAhmAC_BU55Vordls-4" value="Schemes" style="rounded=1;whiteSpace=wrap;html=1;" vertex="1" parent="1">
          <mxGeometry x="540" y="370" width="120" height="60" as="geometry" />
        </mxCell>
        <mxCell id="sEIuAhmAC_BU55Vordls-10" value="Loss to the Peoples money when there is scams, corruption, slow project, inefficiencies,&amp;nbsp;" style="rounded=1;whiteSpace=wrap;html=1;" vertex="1" parent="1">
          <mxGeometry x="340" y="80" width="170" height="90" as="geometry" />
        </mxCell>
        <mxCell id="sEIuAhmAC_BU55Vordls-11" value="Loss if there is any scams" style="rounded=1;whiteSpace=wrap;html=1;" vertex="1" parent="1">
          <mxGeometry x="540" y="490" width="120" height="60" as="geometry" />
        </mxCell>
      </root>
    </mxGraphModel>
  </diagram>
</mxfile>
